<?xml version="1.0" encoding="UTF-8"?>
<svg id="_レイヤー_1" data-name="レイヤー 1" xmlns="http://www.w3.org/2000/svg" viewBox="0 0 512 512">
  <defs>
    <style>
      .cls-1 {
        fill: #0e1734;
      }
    </style>
  </defs>
  <polygon class="cls-1" points="260.42 282.05 259.93 282.05 251.39 282.05 250.89 282.05 187.56 82.02 94.9 82.02 94.9 429.98 187.56 429.98 187.56 179.65 240.68 343.07 270.64 343.07 323.76 179.65 323.76 82.02 260.42 282.05"/>
  <g>
    <rect class="cls-1" x="323.76" y="277.8" width="93.34" height="28.7"/>
    <polygon class="cls-1" points="381.64 258.53 381.64 194.8 394.22 194.8 394.22 258.53 417.1 258.53 417.1 179.65 358.76 179.65 358.76 241.42 346.64 241.42 346.64 179.65 323.76 179.65 323.76 258.53 381.64 258.53"/>
    <polygon class="cls-1" points="346.64 82.02 323.76 82.02 323.76 162.75 417.1 162.75 417.1 82.02 394.22 82.02 394.22 142.83 346.64 142.83 346.64 82.02"/>
    <polygon class="cls-1" points="377.53 376.57 377.53 378.55 323.76 399.33 323.76 429.98 417.1 429.98 417.1 399.33 357.85 399.33 401.59 382.4 401.59 372.74 357.86 355.82 417.1 355.82 417.1 325.17 323.76 325.17 323.76 355.82 377.53 376.57"/>
  </g>
</svg>