<?xml version="1.0" encoding="UTF-8"?>
<svg id="_レイヤー_1" data-name="レイヤー 1" xmlns="http://www.w3.org/2000/svg" viewBox="0 0 512 512">
  <defs>
    <style>
      .cls-1 {
        fill: #0e1734;
      }
    </style>
  </defs>
  <rect class="cls-1" x="216.44" y="198.03" width="23.75" height="87.62"/>
  <polygon class="cls-1" points="254.3 252.63 311.39 252.63 311.39 264.5 254.3 264.5 254.3 286.09 315.51 286.09 315.51 231.05 258.43 231.05 258.43 219.62 315.51 219.62 315.51 198.03 254.3 198.03 254.3 252.63"/>
  <polygon class="cls-1" points="390.89 219.62 390.89 198.03 329.68 198.03 329.68 286.09 390.89 286.09 390.89 264.5 333.81 264.5 333.81 219.62 390.89 219.62"/>
  <polygon class="cls-1" points="162.5 248.51 160.96 248.51 144.86 198.03 121.11 198.03 121.11 285.65 144.86 285.65 144.86 211.58 157.98 252.63 165.47 252.63 178.58 211.59 178.58 285.65 202.33 285.65 202.33 198.03 178.58 198.03 162.5 248.51"/>
  <g>
    <path class="cls-1" d="M121.11,294.14h3.77l1.9,7.01,1.89-7.01h3.79v15.98h-2.72v-12.8l-1.69,6.99h-2.51l-1.71-6.99v12.8h-2.72v-15.98Z"/>
    <path class="cls-1" d="M146.4,309.53c-.73,.3-1.47,.52-2.23,.67-.76,.15-1.55,.22-2.4,.22-2.01,0-3.54-.54-4.6-1.61-1.06-1.07-1.59-2.62-1.59-4.64s.51-3.5,1.53-4.63c1.02-1.13,2.41-1.7,4.17-1.7s3.16,.53,4.14,1.58,1.47,2.53,1.47,4.45v1.27h-8.12c0,.94,.28,1.65,.83,2.11,.55,.46,1.37,.69,2.46,.69,.72,0,1.43-.1,2.13-.31s1.43-.54,2.19-.99v2.88Zm-2.65-6.74c-.01-.83-.23-1.45-.64-1.88s-1.02-.64-1.81-.64c-.72,0-1.29,.22-1.72,.66s-.68,1.06-.76,1.87h4.93Z"/>
    <path class="cls-1" d="M148.94,298.13h6.21v9.58h3.9v2.41h-10.94v-2.41h3.91v-7.17h-3.07v-2.41Zm3.07-5.83h3.13v3.66h-3.13v-3.66Z"/>
    <path class="cls-1" d="M168.24,299.84v-6.37h3.12v16.65h-3.12v-1.78c-.34,.69-.77,1.21-1.3,1.56-.53,.35-1.16,.52-1.88,.52-1.37,0-2.43-.55-3.19-1.65-.76-1.1-1.13-2.65-1.13-4.64s.38-3.58,1.15-4.67c.77-1.08,1.86-1.63,3.28-1.63,.64,0,1.22,.17,1.73,.5,.51,.33,.96,.83,1.34,1.49Zm-4.37,4.32c0,1.16,.19,2.06,.58,2.72s.92,.99,1.59,.99,1.21-.33,1.6-.99,.59-1.56,.59-2.72-.2-2.06-.59-2.72-.93-.99-1.6-.99-1.21,.33-1.59,.99-.58,1.56-.58,2.72Z"/>
    <path class="cls-1" d="M184.76,309.53c-.73,.3-1.47,.52-2.23,.67-.76,.15-1.55,.22-2.4,.22-2.01,0-3.54-.54-4.6-1.61-1.06-1.07-1.59-2.62-1.59-4.64s.51-3.5,1.53-4.63c1.02-1.13,2.41-1.7,4.17-1.7s3.16,.53,4.14,1.58,1.47,2.53,1.47,4.45v1.27h-8.12c0,.94,.28,1.65,.83,2.11,.55,.46,1.37,.69,2.46,.69,.72,0,1.43-.1,2.13-.31,.7-.21,1.43-.54,2.19-.99v2.88Zm-2.65-6.74c-.01-.83-.23-1.45-.64-1.88s-1.02-.64-1.81-.64c-.72,0-1.29,.22-1.72,.66s-.68,1.06-.76,1.87h4.93Z"/>
    <path class="cls-1" d="M197.62,302.34v7.78h-3.11v-7.3c0-.87-.12-1.49-.37-1.87-.25-.37-.65-.56-1.2-.56s-1.01,.25-1.33,.76c-.32,.51-.49,1.21-.49,2.11v6.86h-3.11v-11.99h3.11v1.8c.22-.66,.6-1.18,1.13-1.54,.53-.36,1.18-.55,1.94-.55,1.13,0,1.99,.38,2.57,1.13,.58,.75,.87,1.87,.87,3.37Z"/>
  </g>
  <g>
    <path class="cls-1" d="M207.26,296.51v-2.78h9.51v2.78h-3.18v10.41h3.18v2.78h-9.51v-2.78h3.18v-10.41h-3.18Z"/>
    <path class="cls-1" d="M230.08,301.93v7.78h-3.11v-7.3c0-.87-.12-1.49-.37-1.87-.25-.37-.65-.56-1.2-.56s-1.01,.25-1.33,.76c-.32,.51-.49,1.21-.49,2.11v6.86h-3.11v-11.99h3.11v1.8c.22-.66,.6-1.18,1.13-1.54,.53-.36,1.18-.55,1.94-.55,1.13,0,1.99,.38,2.57,1.13,.58,.75,.87,1.87,.87,3.37Z"/>
    <path class="cls-1" d="M238.5,296.67v1.05h3.68v2.41h-3.68v9.58h-3.13v-9.58h-2.91v-2.41h2.91v-.83c0-1.44,.3-2.44,.9-3,.6-.56,1.71-.83,3.34-.83h2.58v2.41h-2.45c-.47,0-.79,.08-.96,.26-.17,.17-.26,.49-.27,.95Z"/>
    <path class="cls-1" d="M243.61,303.73c0-1.93,.5-3.46,1.5-4.6,1-1.13,2.35-1.7,4.04-1.7s3.05,.57,4.05,1.7c1,1.13,1.5,2.66,1.5,4.6s-.5,3.47-1.5,4.6c-1,1.13-2.35,1.7-4.05,1.7s-3.04-.57-4.04-1.7c-1-1.13-1.5-2.66-1.5-4.6Zm5.54-3.74c-.75,0-1.34,.33-1.77,.99-.43,.66-.64,1.58-.64,2.75s.21,2.1,.64,2.76,1.02,.99,1.77,.99,1.35-.33,1.78-.99,.64-1.58,.64-2.76-.21-2.1-.64-2.75c-.43-.66-1.02-.99-1.78-.99Z"/>
  </g>
  <g>
    <path class="cls-1" d="M267.86,302.42c-1.59-.61-2.67-1.24-3.23-1.91-.56-.67-.85-1.56-.85-2.69,0-1.45,.46-2.58,1.39-3.41,.93-.83,2.2-1.24,3.82-1.24,.74,0,1.47,.08,2.2,.25,.73,.17,1.46,.42,2.18,.74v3.08c-.68-.48-1.37-.84-2.07-1.09-.7-.25-1.39-.37-2.08-.37-.76,0-1.35,.15-1.76,.46-.41,.31-.61,.74-.61,1.32,0,.44,.15,.81,.44,1.1,.3,.29,.91,.61,1.86,.96l1.36,.51c1.28,.47,2.23,1.1,2.84,1.87s.91,1.76,.91,2.94c0,1.61-.48,2.82-1.43,3.61-.95,.8-2.39,1.19-4.32,1.19-.79,0-1.59-.09-2.38-.28s-1.56-.47-2.31-.84v-3.26c.84,.6,1.66,1.04,2.45,1.34,.79,.29,1.57,.44,2.34,.44s1.38-.18,1.81-.53,.64-.85,.64-1.48c0-.48-.14-.9-.43-1.26-.29-.36-.7-.64-1.24-.85l-1.55-.59Z"/>
    <path class="cls-1" d="M281.98,310.73c-.42,1.13-.93,1.95-1.51,2.47-.59,.52-1.3,.78-2.14,.78h-2.59v-2.39h1.27c.64,0,1.11-.11,1.41-.33,.3-.22,.6-.72,.91-1.51l.24-.64-4.56-11.65h3.3l2.74,7.78,2.62-7.78h3.3l-4.98,13.28Z"/>
    <path class="cls-1" d="M296.94,297.82v2.74c-.58-.37-1.18-.65-1.8-.84s-1.25-.28-1.88-.28c-.7,0-1.23,.1-1.58,.3s-.53,.5-.53,.9c0,.57,.76,1.03,2.29,1.39l.12,.03,.9,.21c1.14,.27,1.98,.71,2.51,1.31,.53,.6,.8,1.42,.8,2.45,0,1.23-.41,2.16-1.21,2.78s-2.03,.93-3.66,.93c-.72,0-1.46-.06-2.21-.19-.76-.12-1.52-.31-2.3-.56v-2.74c.69,.39,1.4,.69,2.11,.9,.72,.21,1.41,.31,2.08,.31,.73,0,1.29-.11,1.67-.32s.57-.52,.57-.93-.13-.71-.4-.92-.9-.44-1.91-.69l-.87-.19c-1.2-.27-2.07-.7-2.62-1.27-.55-.58-.82-1.35-.82-2.32,0-1.15,.42-2.05,1.25-2.7,.83-.64,2.01-.96,3.52-.96,.68,0,1.35,.06,2.03,.17,.67,.11,1.33,.28,1.96,.5Z"/>
    <path class="cls-1" d="M305.69,294.05v3.4h4.1v2.41h-4.1v5.67c0,.54,.13,.92,.39,1.15s.69,.35,1.3,.35h2.41v2.41h-2.63c-1.8,0-3.01-.29-3.65-.86s-.95-1.64-.95-3.19v-5.52h-3.06v-2.41h3.06v-3.4h3.14Z"/>
    <path class="cls-1" d="M322.07,308.85c-.73,.3-1.47,.52-2.23,.67-.76,.15-1.55,.22-2.4,.22-2.01,0-3.54-.54-4.6-1.61-1.06-1.07-1.59-2.62-1.59-4.64s.51-3.5,1.53-4.63c1.02-1.13,2.41-1.7,4.17-1.7s3.16,.53,4.14,1.58,1.47,2.53,1.47,4.45v1.27h-8.12c0,.94,.28,1.65,.83,2.11,.55,.46,1.37,.69,2.46,.69,.72,0,1.43-.1,2.13-.31s1.43-.54,2.19-.99v2.88Zm-2.65-6.74c-.01-.83-.23-1.45-.64-1.88s-1.02-.64-1.81-.64c-.72,0-1.29,.22-1.72,.66s-.68,1.06-.76,1.87h4.93Z"/>
    <path class="cls-1" d="M330.86,298.65c.23-.51,.53-.88,.9-1.12,.36-.24,.81-.36,1.34-.36,1.03,0,1.75,.36,2.15,1.07,.4,.71,.59,2.2,.59,4.45v6.75h-2.57v-7.69c0-.89-.07-1.49-.2-1.79-.14-.3-.38-.45-.74-.45s-.61,.15-.75,.46c-.14,.31-.21,.9-.21,1.78v7.69h-2.54v-7.69c0-.88-.07-1.47-.21-1.78-.14-.31-.39-.46-.75-.46s-.6,.15-.74,.45c-.14,.3-.2,.9-.2,1.79v7.69h-2.57v-11.99h2.28v1.24c.18-.47,.46-.84,.86-1.12s.83-.41,1.32-.41,.93,.14,1.33,.43,.64,.64,.73,1.05Z"/>
  </g>
  <g>
    <path class="cls-1" d="M353.09,309.09c-.5,.26-1.02,.45-1.57,.58-.55,.13-1.13,.19-1.73,.19-2.15,0-3.8-.71-4.93-2.13-1.13-1.42-1.7-3.47-1.7-6.15s.57-4.74,1.7-6.16c1.13-1.42,2.78-2.13,4.93-2.13,.61,0,1.19,.06,1.74,.19,.56,.13,1.08,.32,1.56,.58v3.51c-.54-.5-1.07-.86-1.58-1.1-.51-.23-1.04-.35-1.58-.35-1.16,0-2.03,.46-2.62,1.37-.59,.92-.88,2.28-.88,4.08s.29,3.16,.88,4.07c.59,.92,1.46,1.37,2.62,1.37,.54,0,1.07-.12,1.58-.35,.51-.23,1.04-.6,1.58-1.1v3.51Z"/>
    <path class="cls-1" d="M358.86,304.55v-9.25h-3.18v-2.41h6.31v11.65c0,.94,.15,1.61,.44,2s.79,.59,1.49,.59h2.5v2.41h-3.38c-1.49,0-2.56-.38-3.21-1.16-.65-.77-.97-2.05-.97-3.84Z"/>
    <path class="cls-1" d="M368.4,305.37v-7.8h3.13v7.32c0,.86,.12,1.48,.36,1.85,.24,.37,.65,.56,1.21,.56s1-.25,1.32-.75c.32-.5,.48-1.2,.48-2.1v-6.88h3.13v11.99h-3.13v-1.78c-.22,.66-.6,1.18-1.13,1.54-.53,.36-1.17,.55-1.92,.55-1.14,0-2-.38-2.58-1.13-.58-.76-.87-1.88-.87-3.36Z"/>
    <path class="cls-1" d="M383.39,299.27c.38-.66,.83-1.16,1.34-1.49,.51-.33,1.09-.5,1.73-.5,1.42,0,2.51,.54,3.28,1.63,.77,1.08,1.15,2.64,1.15,4.67s-.38,3.55-1.13,4.64c-.76,1.1-1.82,1.65-3.19,1.65-.72,0-1.35-.18-1.88-.52-.54-.35-.97-.87-1.29-1.56v1.78h-3.12v-16.65h3.12v6.37Zm4.37,4.32c0-1.16-.19-2.06-.58-2.72s-.92-.99-1.59-.99-1.21,.33-1.61,.99-.59,1.56-.59,2.72,.2,2.06,.59,2.72,.93,.99,1.61,.99,1.21-.33,1.59-.99,.58-1.56,.58-2.72Z"/>
  </g>
</svg>