<?xml version="1.0" encoding="UTF-8"?>
<svg id="_レイヤー_1" data-name="レイヤー 1" xmlns="http://www.w3.org/2000/svg" viewBox="0 0 512 512">
  <defs>
    <style>
      .cls-1 {
        fill: #0e1734;
      }
    </style>
  </defs>
  <path class="cls-1" d="M230.3,301.45H73.58c-7.66,0-13.9-6.24-13.9-13.9v-87.64c0-7.66,6.24-13.9,13.9-13.9H230.3c7.66,0,13.9,6.24,13.9,13.9v87.64c0,7.66-6.24,13.9-13.9,13.9ZM73.58,189.67c-5.64,0-10.23,4.59-10.23,10.23v87.64c0,5.64,4.59,10.23,10.23,10.23H230.3c5.64,0,10.24-4.59,10.24-10.23v-87.64c0-5.64-4.59-10.23-10.24-10.23H73.58Z"/>
  <path class="cls-1" d="M175.12,318.8h-46.36v-21.02h46.36v21.02Zm-42.7-3.66h39.03v-13.69h-39.03v13.69Z"/>
  <path class="cls-1" d="M189.91,325.99H113.97v-10.86h75.93v10.86Zm-72.27-3.66h68.6v-3.53H117.64v3.53Z"/>
  <path class="cls-1" d="M235.04,292.29H68.84v-97.12H235.04v97.12Zm-162.53-3.66H231.37v-89.79H72.5v89.79Z"/>
  <g>
    <g>
      <path class="cls-1" d="M257.93,201.77h5.64l2.85,10.49,2.83-10.49h5.67v23.91h-4.07v-19.15l-2.53,10.46h-3.76l-2.56-10.46v19.15h-4.07v-23.91Z"/>
      <path class="cls-1" d="M295.77,224.8c-1.09,.45-2.2,.79-3.33,1.01-1.13,.22-2.33,.34-3.59,.34-3,0-5.29-.8-6.88-2.41-1.59-1.61-2.38-3.92-2.38-6.94s.76-5.24,2.29-6.93c1.53-1.7,3.61-2.55,6.25-2.55s4.72,.79,6.19,2.36c1.47,1.57,2.2,3.79,2.2,6.65v1.91h-12.15c0,1.41,.43,2.46,1.25,3.16,.82,.69,2.05,1.04,3.68,1.04,1.08,0,2.14-.15,3.19-.46,1.05-.31,2.14-.8,3.28-1.47v4.31Zm-3.97-10.09c-.02-1.24-.34-2.17-.95-2.81-.61-.64-1.52-.95-2.71-.95-1.08,0-1.94,.33-2.58,.99s-1.02,1.59-1.14,2.79l7.38-.02Z"/>
      <path class="cls-1" d="M299.57,207.74h9.29v14.33h5.83v3.6h-16.37v-3.6h5.85v-10.73h-4.6v-3.6Zm4.6-8.73h4.69v5.48h-4.69v-5.48Z"/>
      <path class="cls-1" d="M328.44,210.29v-9.53h4.67v24.92h-4.67v-2.66c-.5,1.03-1.15,1.81-1.95,2.34-.79,.52-1.73,.79-2.81,.79-2.05,0-3.64-.82-4.77-2.47-1.13-1.64-1.7-3.96-1.7-6.95s.57-5.36,1.72-6.98c1.15-1.62,2.78-2.44,4.91-2.44,.96,0,1.82,.25,2.59,.75,.76,.5,1.43,1.24,2.01,2.23Zm-6.53,6.47c0,1.73,.29,3.08,.86,4.07s1.37,1.47,2.39,1.47,1.81-.49,2.4-1.47,.88-2.34,.88-4.07-.3-3.08-.88-4.07-1.39-1.47-2.4-1.47-1.81,.49-2.39,1.47-.86,2.34-.86,4.07Z"/>
      <path class="cls-1" d="M353.17,224.8c-1.09,.45-2.2,.79-3.33,1.01-1.13,.22-2.33,.34-3.59,.34-3,0-5.29-.8-6.88-2.41-1.59-1.61-2.38-3.92-2.38-6.94s.76-5.24,2.29-6.93c1.53-1.7,3.61-2.55,6.25-2.55s4.72,.79,6.19,2.36c1.47,1.57,2.2,3.79,2.2,6.65v1.91h-12.15c0,1.41,.43,2.46,1.25,3.16,.82,.69,2.05,1.04,3.68,1.04,1.08,0,2.14-.15,3.19-.46,1.05-.31,2.14-.8,3.28-1.47v4.31Zm-3.97-10.09c-.02-1.24-.34-2.17-.95-2.81s-1.52-.95-2.71-.95c-1.08,0-1.94,.33-2.58,.99s-1.02,1.59-1.14,2.79l7.38-.02Z"/>
      <path class="cls-1" d="M372.41,214.04v11.64h-4.66v-10.92c0-1.3-.18-2.23-.55-2.79-.37-.56-.97-.84-1.8-.84s-1.51,.38-1.99,1.14c-.48,.76-.73,1.81-.73,3.15v10.26h-4.66v-17.93h4.66v2.69c.33-.99,.9-1.76,1.7-2.31,.8-.54,1.77-.82,2.9-.82,1.7,0,2.98,.56,3.84,1.69,.86,1.13,1.3,2.81,1.3,5.04Z"/>
    </g>
    <g>
      <path class="cls-1" d="M259.3,237.08v-4.16h14.24v4.16h-4.76v15.58h4.76v4.16h-14.24v-4.16h4.76v-15.58h-4.76Z"/>
      <path class="cls-1" d="M293.44,245.18v11.64h-4.66v-10.92c0-1.3-.18-2.23-.55-2.79-.37-.56-.97-.84-1.8-.84s-1.51,.38-1.99,1.14c-.48,.76-.73,1.81-.73,3.15v10.26h-4.66v-17.93h4.66v2.69c.33-.99,.9-1.76,1.7-2.31,.8-.54,1.77-.82,2.9-.82,1.7,0,2.98,.56,3.84,1.69,.86,1.13,1.3,2.81,1.3,5.04Z"/>
      <path class="cls-1" d="M306.04,237.32v1.57h5.51v3.6h-5.51v14.33h-4.69v-14.33h-4.36v-3.6h4.36v-1.25c0-2.16,.45-3.65,1.35-4.48,.9-.83,2.56-1.25,5-1.25h3.86v3.6h-3.67c-.7,0-1.18,.13-1.43,.38-.25,.26-.39,.73-.41,1.43Z"/>
      <path class="cls-1" d="M313.68,247.87c0-2.89,.75-5.18,2.25-6.88,1.5-1.69,3.51-2.54,6.04-2.54s4.56,.85,6.06,2.54c1.5,1.69,2.25,3.98,2.25,6.88s-.75,5.19-2.25,6.88c-1.5,1.69-3.52,2.54-6.06,2.54s-4.54-.85-6.04-2.54c-1.5-1.69-2.25-3.98-2.25-6.88Zm8.29-5.6c-1.12,0-2,.49-2.64,1.48-.64,.99-.96,2.36-.96,4.12s.32,3.14,.96,4.12,1.52,1.48,2.64,1.48,2.02-.49,2.66-1.48,.96-2.36,.96-4.12-.32-3.14-.96-4.12c-.64-.99-1.53-1.48-2.66-1.48Z"/>
    </g>
    <g>
      <path class="cls-1" d="M350.61,246.34c-2.38-.91-3.99-1.86-4.84-2.86-.84-1-1.26-2.34-1.26-4.03,0-2.17,.69-3.87,2.08-5.11,1.39-1.24,3.29-1.86,5.72-1.86,1.1,0,2.2,.13,3.3,.38,1.1,.25,2.19,.62,3.27,1.11v4.61c-1.01-.72-2.04-1.26-3.09-1.63-1.04-.37-2.08-.56-3.11-.56-1.14,0-2.02,.23-2.63,.69-.61,.46-.91,1.11-.91,1.97,0,.66,.22,1.21,.67,1.64,.44,.43,1.37,.91,2.78,1.43l2.03,.77c1.92,.7,3.34,1.64,4.24,2.8,.91,1.16,1.36,2.63,1.36,4.4,0,2.41-.71,4.22-2.14,5.4-1.43,1.19-3.58,1.79-6.46,1.79-1.18,0-2.37-.14-3.56-.42s-2.34-.7-3.45-1.26v-4.88c1.26,.9,2.48,1.56,3.66,2,1.18,.44,2.35,.66,3.5,.66s2.07-.26,2.71-.79,.96-1.27,.96-2.22c0-.71-.21-1.34-.64-1.88-.43-.54-1.05-.96-1.86-1.27l-2.32-.88Z"/>
      <path class="cls-1" d="M371.74,258.76c-.63,1.69-1.39,2.92-2.27,3.69-.88,.77-1.95,1.16-3.21,1.16h-3.88v-3.57h1.91c.96,0,1.67-.16,2.11-.49,.45-.33,.9-1.08,1.36-2.27l.35-.96-6.82-17.44h4.93l4.1,11.64,3.92-11.64h4.93l-7.44,19.87Z"/>
      <path class="cls-1" d="M394.13,239.45v4.1c-.87-.56-1.77-.98-2.7-1.26-.93-.28-1.87-.42-2.81-.42-1.05,0-1.84,.15-2.37,.46s-.8,.76-.8,1.35c0,.86,1.14,1.55,3.43,2.08l.18,.05,1.35,.32c1.71,.4,2.96,1.06,3.76,1.96,.79,.9,1.19,2.12,1.19,3.66,0,1.85-.61,3.23-1.82,4.16s-3.03,1.38-5.47,1.38c-1.08,0-2.18-.09-3.31-.28-1.13-.19-2.28-.47-3.44-.84v-4.1c1.03,.59,2.09,1.04,3.16,1.35,1.07,.31,2.11,.46,3.11,.46,1.1,0,1.93-.16,2.5-.48s.85-.79,.85-1.39-.2-1.06-.6-1.38-1.35-.66-2.86-1.03l-1.3-.29c-1.79-.41-3.1-1.04-3.92-1.91-.82-.87-1.23-2.02-1.23-3.48,0-1.73,.62-3.07,1.88-4.03,1.25-.96,3-1.44,5.27-1.44,1.01,0,2.03,.08,3.03,.25,1.01,.17,1.99,.42,2.94,.74Z"/>
      <path class="cls-1" d="M407.22,233.8v5.09h6.13v3.6h-6.13v8.49c0,.8,.19,1.38,.58,1.72s1.04,.52,1.95,.52h3.6v3.6h-3.94c-2.69,0-4.51-.43-5.46-1.29s-1.43-2.45-1.43-4.78v-8.26h-4.58v-3.6h4.58v-5.09h4.69Z"/>
      <path class="cls-1" d="M431.73,255.94c-1.09,.45-2.2,.79-3.33,1.01-1.13,.22-2.33,.34-3.59,.34-3,0-5.29-.8-6.88-2.41-1.59-1.61-2.38-3.92-2.38-6.94s.76-5.24,2.29-6.93c1.53-1.7,3.61-2.55,6.25-2.55s4.72,.79,6.19,2.36c1.47,1.57,2.2,3.79,2.2,6.65v1.91h-12.15c0,1.41,.43,2.46,1.25,3.16,.82,.69,2.05,1.04,3.68,1.04,1.08,0,2.14-.15,3.19-.46s2.14-.8,3.28-1.47v4.31Zm-3.97-10.09c-.02-1.24-.34-2.17-.95-2.81s-1.52-.95-2.71-.95c-1.08,0-1.94,.33-2.58,.99s-1.02,1.59-1.14,2.79l7.38-.02Z"/>
      <path class="cls-1" d="M444.87,240.68c.35-.76,.8-1.32,1.34-1.68,.55-.36,1.21-.55,2-.55,1.55,0,2.62,.53,3.21,1.6,.59,1.07,.89,3.29,.89,6.66v10.1h-3.84v-11.51c0-1.33-.1-2.23-.3-2.67-.2-.45-.57-.67-1.1-.67s-.91,.23-1.12,.69c-.21,.46-.32,1.35-.32,2.66v11.51h-3.79v-11.51c0-1.31-.11-2.2-.32-2.66-.21-.46-.59-.69-1.12-.69s-.9,.22-1.11,.67c-.2,.45-.3,1.34-.3,2.67v11.51h-3.84v-17.93h3.41v1.86c.27-.7,.69-1.26,1.28-1.67s1.24-.62,1.97-.62,1.39,.22,1.99,.65,.96,.96,1.09,1.58Z"/>
    </g>
    <g>
      <path class="cls-1" d="M273.86,287.28c-.75,.38-1.53,.67-2.35,.86-.82,.19-1.69,.29-2.59,.29-3.22,0-5.68-1.06-7.38-3.19-1.7-2.12-2.55-5.19-2.55-9.21s.85-7.1,2.55-9.22c1.7-2.12,4.16-3.19,7.38-3.19,.91,0,1.78,.1,2.61,.29,.83,.19,1.61,.48,2.34,.87v5.25c-.81-.75-1.6-1.29-2.36-1.64-.76-.35-1.55-.52-2.36-.52-1.73,0-3.03,.69-3.92,2.06-.88,1.37-1.32,3.41-1.32,6.11s.44,4.72,1.32,6.09c.88,1.37,2.19,2.06,3.92,2.06,.81,0,1.6-.17,2.36-.52,.76-.35,1.55-.89,2.36-1.64v5.25Z"/>
      <path class="cls-1" d="M282.49,280.49v-13.84h-4.76v-3.6h9.45v17.44c0,1.41,.22,2.41,.66,2.99s1.18,.88,2.23,.88h3.75v3.6h-5.06c-2.23,0-3.83-.58-4.8-1.73-.97-1.15-1.46-3.07-1.46-5.75Z"/>
      <path class="cls-1" d="M296.76,281.71v-11.67h4.69v10.95c0,1.29,.18,2.21,.55,2.77,.36,.55,.97,.83,1.81,.83s1.5-.37,1.98-1.12c.48-.75,.71-1.79,.71-3.14v-10.3h4.69v17.93h-4.69v-2.66c-.33,.99-.89,1.76-1.69,2.31-.79,.54-1.75,.82-2.87,.82-1.71,0-3-.57-3.87-1.7-.87-1.13-1.3-2.81-1.3-5.03Z"/>
      <path class="cls-1" d="M319.19,272.58c.58-.99,1.25-1.74,2.01-2.23,.76-.5,1.63-.75,2.59-.75,2.12,0,3.76,.81,4.91,2.44,1.15,1.62,1.72,3.95,1.72,6.98s-.57,5.3-1.7,6.95c-1.13,1.64-2.72,2.47-4.77,2.47-1.08,0-2.02-.26-2.82-.79-.8-.52-1.45-1.3-1.94-2.34v2.66h-4.67v-24.92h4.67v9.53Zm6.53,6.47c0-1.73-.29-3.08-.87-4.07s-1.37-1.47-2.38-1.47-1.82,.49-2.4,1.47-.88,2.34-.88,4.07,.29,3.08,.88,4.07,1.39,1.47,2.4,1.47,1.81-.49,2.38-1.47,.87-2.34,.87-4.07Z"/>
    </g>
  </g>
  <rect class="cls-1" x="137.6" y="227.43" width="8.64" height="31.88"/>
  <polygon class="cls-1" points="151.37 247.3 172.14 247.3 172.14 251.61 151.37 251.61 151.37 259.47 173.64 259.47 173.64 239.44 152.87 239.44 152.87 235.28 173.64 235.28 173.64 227.43 151.37 227.43 151.37 247.3"/>
  <polygon class="cls-1" points="201.06 235.28 201.06 227.43 178.79 227.43 178.79 259.47 201.06 259.47 201.06 251.61 180.3 251.61 180.3 235.28 201.06 235.28"/>
  <polygon class="cls-1" points="117.97 245.8 117.41 245.8 111.55 227.43 102.91 227.43 102.91 259.31 111.55 259.31 111.55 232.36 116.33 247.3 119.05 247.3 123.82 232.36 123.82 259.31 132.46 259.31 132.46 227.43 123.82 227.43 117.97 245.8"/>
</svg>