<?xml version="1.0" encoding="UTF-8"?>
<svg id="_レイヤー_1" data-name="レイヤー 1" xmlns="http://www.w3.org/2000/svg" viewBox="0 0 512 512">
  <defs>
    <style>
      .cls-1 {
        fill: #0e1734;
      }
    </style>
  </defs>
  <rect class="cls-1" x="221.73" y="212.19" width="23.75" height="87.62"/>
  <polygon class="cls-1" points="249.07 266.52 306.16 266.52 306.16 278.33 249.07 278.33 249.07 299.81 310.28 299.81 310.28 245.04 253.19 245.04 253.19 233.67 310.28 233.67 310.28 212.19 249.07 212.19 249.07 266.52"/>
  <polygon class="cls-1" points="375.08 233.67 375.08 212.19 313.87 212.19 313.87 299.81 375.08 299.81 375.08 278.33 318 278.33 318 233.67 375.08 233.67"/>
  <polygon class="cls-1" points="178.31 262.67 176.77 262.67 160.67 212.19 136.92 212.19 136.92 299.81 160.67 299.81 160.67 225.74 173.79 266.79 181.28 266.79 194.39 225.75 194.39 299.81 218.14 299.81 218.14 212.19 194.39 212.19 178.31 262.67"/>
</svg>